<?xml version="1.0" standalone="no"?>
<!DOCTYPE svg PUBLIC "-//W3C//DTD SVG 20010904//EN"
 "http://www.w3.org/TR/2001/REC-SVG-20010904/DTD/svg10.dtd">
<svg version="1.0" xmlns="http://www.w3.org/2000/svg"
 width="161.000000pt" height="65.000000pt" viewBox="0 0 161.000000 65.000000"
 preserveAspectRatio="xMidYMid meet">

<g transform="translate(0.000000,65.000000) scale(0.100000,-0.100000)"
fill="#000000" stroke="none">
<path d="M173 573 c-21 -8 -15 -22 7 -16 11 3 20 9 20 14 0 10 -8 10 -27 2z"/>
<path d="M208 545 c-34 -39 -34 -39 -6 -67 20 -20 22 -20 35 -3 7 11 13 25 13
32 0 7 5 13 10 13 17 0 11 39 -7 48 -14 7 -24 2 -45 -23z"/>
<path d="M445 561 c94 -9 105 -25 58 -82 l-28 -34 32 23 c18 13 36 35 39 49
10 39 -17 53 -95 51 l-66 -1 60 -6z"/>
<path d="M1027 504 c-8 -8 1 -24 14 -24 5 0 9 7 9 15 0 15 -12 20 -23 9z"/>
<path d="M1297 504 c-8 -8 1 -24 14 -24 5 0 9 7 9 15 0 15 -12 20 -23 9z"/>
<path d="M838 453 c16 -6 16 -115 0 -131 -9 -9 -4 -12 24 -12 74 0 118 35 85
67 -12 12 -13 20 -4 34 19 30 -7 49 -67 48 -28 0 -45 -3 -38 -6z m76 -12 c9
-14 -4 -41 -20 -41 -8 0 -14 10 -14 25 0 25 23 35 34 16z m-6 -60 c18 -11 11
-56 -8 -56 -10 0 -16 12 -18 33 -3 33 3 38 26 23z"/>
<path d="M1008 451 c10 -6 13 -26 10 -70 -2 -42 1 -61 9 -61 6 0 20 -3 30 -6
15 -6 16 -4 6 7 -7 7 -13 38 -13 70 0 37 5 59 13 62 6 3 -6 6 -28 6 -26 0 -35
-2 -27 -8z"/>
<path d="M1119 451 c10 -6 12 -26 9 -72 l-4 -64 46 0 c49 1 70 9 70 28 0 8 -3
8 -12 -1 -7 -7 -25 -12 -40 -12 -27 0 -28 2 -28 53 0 29 5 58 12 65 9 9 3 12
-27 12 -27 0 -35 -3 -26 -9z"/>
<path d="M1278 451 c10 -6 13 -26 10 -70 -2 -42 1 -61 9 -61 6 0 20 -3 30 -6
15 -6 16 -4 6 7 -7 7 -13 38 -13 70 0 37 5 59 13 62 6 3 -6 6 -28 6 -26 0 -35
-2 -27 -8z"/>
<path d="M1389 451 c10 -6 12 -26 9 -72 l-4 -64 29 -1 c20 -1 25 2 18 9 -14
14 -14 57 -1 57 5 0 16 -13 24 -29 15 -29 34 -41 64 -41 11 0 6 10 -18 35 -26
27 -31 38 -22 47 17 17 15 55 -4 62 -25 10 -111 7 -95 -3z m76 -31 c0 -16 -6
-26 -17 -28 -14 -3 -18 3 -18 28 0 25 4 31 18 28 11 -2 17 -12 17 -28z"/>
<path d="M190 360 c0 -73 2 -80 20 -80 18 0 20 7 20 80 0 73 -2 80 -20 80 -18
0 -20 -7 -20 -80z"/>
<path d="M602 420 c26 -4 52 -11 57 -15 17 -10 13 -40 -11 -70 -20 -26 -20
-27 -1 -14 11 7 28 24 37 39 24 42 3 62 -70 66 l-59 3 47 -9z"/>
<path d="M1003 283 c104 -2 270 -2 370 0 100 1 16 2 -188 2 -203 0 -285 -1
-182 -2z"/>
<path d="M162 202 c-13 -9 -6 -42 9 -42 5 0 9 -7 9 -15 0 -9 -6 -12 -16 -8
-14 5 -14 3 -3 -15 12 -19 14 -19 26 -4 17 23 16 37 -2 52 -20 17 -19 31 2 23
11 -4 14 -3 9 5 -8 14 -16 15 -34 4z"/>
<path d="M506 194 c-10 -25 -7 -74 4 -74 6 0 10 20 10 45 0 47 -4 55 -14 29z"/>
<path d="M1021 197 c-8 -11 -6 -18 9 -32 27 -24 25 -38 -2 -30 -18 6 -20 5
-11 -5 14 -15 43 -6 43 13 0 8 -7 20 -15 27 -20 17 -19 31 2 23 11 -4 14 -3 9
5 -9 16 -21 15 -35 -1z"/>
<path d="M1390 200 c0 -5 -6 -10 -14 -10 -18 0 -29 -31 -20 -54 3 -9 15 -16
25 -16 16 0 19 8 19 45 0 25 -2 45 -5 45 -3 0 -5 -4 -5 -10z m0 -45 c0 -14 -4
-25 -10 -25 -5 0 -10 11 -10 25 0 14 5 25 10 25 6 0 10 -11 10 -25z"/>
<path d="M1483 195 c-3 -9 2 -24 11 -34 22 -24 20 -34 -5 -26 -18 6 -19 5 -7
-14 16 -26 20 -26 36 0 12 18 11 24 -9 45 -20 22 -19 29 4 25 5 -1 6 3 2 9 -9
15 -25 12 -32 -5z"/>
<path d="M1580 199 c0 -5 -8 -9 -17 -7 -21 3 -23 -1 -23 -42 0 -16 4 -30 9
-30 6 0 9 11 8 24 -1 14 3 25 8 25 6 0 10 -8 10 -18 0 -11 3 -23 8 -27 4 -4 7
14 7 39 0 26 -2 47 -5 47 -3 0 -5 -5 -5 -11z"/>
<path d="M48 160 c2 -22 6 -40 8 -40 2 0 4 18 4 40 0 22 -3 40 -8 40 -4 0 -6
-18 -4 -40z"/>
<path d="M81 158 c1 -40 2 -41 8 -13 l8 30 13 -27 c19 -40 30 -34 29 15 -1 37
-2 38 -8 13 l-6 -29 -14 26 c-21 39 -31 33 -30 -15z"/>
<path d="M216 169 c-9 -47 -7 -55 8 -33 14 18 15 18 21 2 9 -22 45 -24 45 -3
0 8 5 15 10 15 6 0 13 -7 16 -15 13 -33 22 -13 10 22 -16 47 -32 52 -41 14 -8
-39 -21 -40 -28 -1 -8 39 -33 38 -41 -1z m94 1 c0 -5 -5 -10 -11 -10 -5 0 -7
5 -4 10 3 6 8 10 11 10 2 0 4 -4 4 -10z"/>
<path d="M348 193 c6 -2 12 -20 12 -39 0 -47 17 -43 22 6 3 37 2 40 -22 39
-14 0 -19 -3 -12 -6z"/>
<path d="M447 192 c6 -4 13 -23 16 -42 l4 -35 1 37 c1 20 8 39 15 41 6 3 -1 6
-18 6 -17 0 -25 -3 -18 -7z"/>
<path d="M648 193 c6 -2 12 -20 12 -39 0 -47 17 -43 22 6 3 37 2 40 -22 39
-14 0 -19 -3 -12 -6z"/>
<path d="M1260 160 c0 -37 2 -40 28 -39 16 1 20 3 10 6 -13 3 -18 15 -18 39 0
19 -4 34 -10 34 -5 0 -10 -18 -10 -40z"/>
<path d="M1319 195 c-8 -7 2 -75 10 -75 4 0 7 16 7 34 -2 35 -8 50 -17 41z"/>
<path d="M534 166 c-7 -29 1 -46 22 -46 14 0 14 2 0 15 -15 16 -11 49 5 39 5
-3 9 0 9 5 0 22 -30 10 -36 -13z"/>
<path d="M712 158 c-2 -34 1 -38 21 -38 20 0 24 5 25 30 0 16 -4 32 -9 35 -5
4 -9 -8 -9 -24 0 -41 -18 -40 -23 2 -4 31 -4 31 -5 -5z"/>
<path d="M770 155 c0 -19 4 -35 9 -35 5 0 11 16 13 35 3 24 0 35 -9 35 -8 0
-13 -13 -13 -35z"/>
<path d="M864 181 c3 -4 10 -21 16 -37 l12 -29 14 34 c17 40 17 41 4 41 -5 0
-10 -10 -11 -22 l0 -23 -11 23 c-6 12 -15 22 -20 22 -5 0 -7 -4 -4 -9z"/>
<path d="M929 174 c-16 -19 -1 -48 27 -52 18 -3 18 -2 1 9 -17 10 -17 12 -1
23 9 7 14 18 10 24 -10 16 -21 15 -37 -4z m31 -4 c0 -5 -4 -10 -10 -10 -5 0
-10 5 -10 10 0 6 5 10 10 10 6 0 10 -4 10 -10z"/>
<path d="M1088 184 c10 -5 9 -9 -4 -19 -22 -16 -12 -45 16 -45 18 0 21 5 18
32 -2 24 -8 33 -23 35 -11 2 -14 0 -7 -3z m17 -33 c3 -5 1 -12 -5 -16 -5 -3
-10 1 -10 9 0 18 6 21 15 7z"/>
<path d="M1139 153 l6 -38 3 33 c4 40 22 42 22 2 0 -16 5 -30 11 -30 6 0 8 7
5 16 -3 9 -6 24 -6 35 0 13 -7 19 -23 19 -21 0 -22 -4 -18 -37z"/>
<path d="M585 130 c-3 -5 -1 -10 4 -10 6 0 11 5 11 10 0 6 -2 10 -4 10 -3 0
-8 -4 -11 -10z"/>
</g>
</svg>
